<?xml version="1.0" encoding="UTF-8" standalone="no"?>
<svg
   xmlns:dc="http://purl.org/dc/elements/1.1/"
   xmlns:cc="http://creativecommons.org/ns#"
   xmlns:rdf="http://www.w3.org/1999/02/22-rdf-syntax-ns#"
   xmlns:svg="http://www.w3.org/2000/svg"
   xmlns="http://www.w3.org/2000/svg"
   xmlns:xlink="http://www.w3.org/1999/xlink"
   width="264.58331mm"
   height="90.631256mm"
   viewBox="0 0 264.5833 90.631258"
   version="1.1"
   id="svg8">
  <defs
     id="defs2">
    <linearGradient
       id="XMLID_2_"
       gradientUnits="userSpaceOnUse"
       x1="88.485802"
       y1="177.5806"
       x2="88.485802"
       y2="11.4194"
       gradientTransform="matrix(2.0496165,0,0,2.0496165,-33.924961,-23.405767)">
		<stop
   offset="0"
   style="stop-color:#EE9037"
   id="stop2" />

		<stop
   offset="0.0996"
   style="stop-color:#EE8E3E"
   id="stop4" />

		<stop
   offset="0.259"
   style="stop-color:#EE884F"
   id="stop6" />

		<stop
   offset="0.4583"
   style="stop-color:#EC7D63"
   id="stop8" />

		<stop
   offset="0.6897"
   style="stop-color:#EA6C76"
   id="stop10" />

		<stop
   offset="0.9452"
   style="stop-color:#E6558A"
   id="stop12" />

		<stop
   offset="1"
   style="stop-color:#E64E8D"
   id="stop14" />

	</linearGradient>
    <linearGradient
       id="linearGradient247998">
      <stop
         style="stop-color:#ff9014;stop-opacity:1"
         offset="0"
         id="stop248000" />
      <stop
         style="stop-color:#ff2087;stop-opacity:1"
         offset="1"
         id="stop248002" />
    </linearGradient>
    <linearGradient
       id="linearGradient247738"
       spreadMethod="pad"
       gradientTransform="matrix(72.817398,126.12401,185.826,-107.287,612.41553,-244.12354)"
       gradientUnits="userSpaceOnUse"
       y2="0"
       x2="1"
       y1="0"
       x1="0">
      <stop
         id="stop247740"
         offset="0"
         style="stop-opacity:1;stop-color:#e64f8c" />
      <stop
         style="stop-color:#eb7a65;stop-opacity:1"
         offset="0.5"
         id="stop247742" />
      <stop
         id="stop247744"
         offset="1"
         style="stop-opacity:1;stop-color:#ee8f37" />
    </linearGradient>
    <linearGradient
       xlink:href="#linearGradient247738"
       id="linearGradient247761"
       x1="869.98022"
       y1="272.56558"
       x2="869.98022"
       y2="231.58475"
       gradientUnits="userSpaceOnUse" />
    <clipPath
       clipPathUnits="userSpaceOnUse"
       id="clipPath243537">
      <path
         d="m 887.402,261.349 c 0.35,0.598 0.14,1.363 -0.45,1.708 l -16.29,9.398 c -0.36,0.212 -0.789,0.336 -1.25,0.336 -0.449,0 -0.88,-0.124 -1.25,-0.336 l -16.079,-9.287 c -0.37,-0.217 -0.621,-0.617 -0.621,-1.079 0,-0.462 0.251,-0.863 0.631,-1.08 l 6.559,-3.8 c 0.451,-0.257 0.61,-0.831 0.35,-1.279 l -7.57,-13.114 c -0.349,-0.599 -0.14,-1.363 0.45,-1.708 l 16.29,-9.399 c 0.36,-0.212 0.791,-0.336 1.24,-0.336 0.461,0 0.89,0.124 1.26,0.336 l 16.071,9.289 v -0.002 c 0.38,0.217 0.63,0.617 0.63,1.08 0,0.462 -0.25,0.861 -0.63,1.078 l -6.571,3.799 c -0.439,0.259 -0.599,0.833 -0.339,1.281 z m -32.029,-0.07 c -0.28,0.163 -0.471,0.462 -0.471,0.81 0,0.346 0.191,0.646 0.471,0.809 l 9.47,5.467 c 0.089,0.052 0.189,0.083 0.299,0.083 0.35,0 0.63,-0.279 0.63,-0.625 0,-0.114 -0.029,-0.22 -0.09,-0.312 l -4.809,-8.332 c -0.25,-0.448 -0.831,-0.602 -1.28,-0.344 z m 0.44,-14.623 4.81,8.335 c 0.259,0.447 0.84,0.602 1.279,0.343 l 4.23,-2.443 c 0.28,-0.164 0.471,-0.463 0.471,-0.809 0,-0.348 -0.191,-0.648 -0.471,-0.811 l -9.47,-5.467 c -0.089,-0.051 -0.189,-0.082 -0.309,-0.085 -0.341,0 -0.62,0.281 -0.62,0.627 0,0.114 0.029,0.219 0.08,0.31 m 12.66,-11.337 c 0,-0.324 -0.16,-0.64 -0.461,-0.812 -0.299,-0.175 -0.659,-0.16 -0.939,0.002 l -11.7,6.757 c -0.28,0.161 -0.471,0.462 -0.471,0.81 0,0.347 0.191,0.646 0.471,0.808 l 11.7,6.758 c 0.28,0.161 0.64,0.177 0.939,0.002 0.301,-0.175 0.461,-0.488 0.461,-0.812 z m 0.01,30.941 -0.01,-10.927 c 0,-0.324 -0.16,-0.639 -0.461,-0.813 -0.299,-0.174 -0.659,-0.158 -0.939,0.002 l -4.23,2.438 c -0.451,0.259 -0.6,0.832 -0.341,1.28 l 4.811,8.337 c 0.109,0.183 0.31,0.309 0.54,0.309 0.34,0 0.62,-0.275 0.63,-0.617 z m 1.88,2.584 c 0,0.324 0.159,0.64 0.46,0.813 0.3,0.175 0.66,0.159 0.939,-0.002 l 11.701,-6.757 c 0.28,-0.162 0.47,-0.462 0.47,-0.809 0,-0.348 -0.19,-0.647 -0.47,-0.81 l -11.701,-6.755 c -0.279,-0.162 -0.639,-0.177 -0.939,-0.004 -0.301,0.174 -0.46,0.489 -0.46,0.812 z m 0.62,-31.567 c -0.351,0 -0.62,0.275 -0.63,0.618 v 0.008 l 0.01,10.928 c 0,0.324 0.159,0.638 0.46,0.813 0.3,0.173 0.66,0.158 0.939,-0.004 l 4.23,-2.436 c 0.441,-0.26 0.601,-0.832 0.341,-1.282 l -4.811,-8.335 c -0.11,-0.185 -0.309,-0.31 -0.539,-0.31 m 12.48,5.607 c 0.28,-0.163 0.47,-0.461 0.47,-0.808 0,-0.348 -0.19,-0.649 -0.47,-0.81 l -9.47,-5.467 c -0.091,-0.052 -0.191,-0.084 -0.3,-0.084 -0.35,0 -0.63,0.28 -0.63,0.625 0,0.114 0.03,0.219 0.089,0.312 l 4.811,8.333 c 0.25,0.448 0.829,0.602 1.28,0.343 z m -5.25,6.289 c -0.261,-0.449 -0.84,-0.603 -1.281,-0.345 l -4.23,2.445 c -0.28,0.162 -0.469,0.462 -0.469,0.809 0,0.346 0.189,0.647 0.469,0.809 l 9.47,5.467 c 0.09,0.053 0.191,0.084 0.301,0.084 0.35,0 0.63,-0.28 0.63,-0.625 0,-0.115 -0.03,-0.219 -0.081,-0.311 l -4.809,-8.333"
         id="path243539" />
    </clipPath>
    <linearGradient
       id="linearGradient9208">
      <stop
         style="stop-color:#fc904d;stop-opacity:1"
         offset="0"
         id="stop9204" />
      <stop
         id="stop9212"
         offset="0.23304683"
         style="stop-color:#f78f52;stop-opacity:1" />
      <stop
         style="stop-color:#8862c2;stop-opacity:1"
         offset="1"
         id="stop9206" />
    </linearGradient>
    <linearGradient
       id="linearGradient9200">
      <stop
         style="stop-color:#494b48;stop-opacity:1"
         offset="0"
         id="stop9196" />
      <stop
         style="stop-color:#222526;stop-opacity:1"
         offset="1"
         id="stop9198" />
    </linearGradient>
    <linearGradient
       id="linearGradient9186">
      <stop
         style="stop-color:#ffffff;stop-opacity:1"
         offset="0"
         id="stop9182" />
      <stop
         id="stop9192"
         offset="0.19130619"
         style="stop-color:#fcfcfc;stop-opacity:1" />
      <stop
         style="stop-color:#cecece;stop-opacity:1"
         offset="1"
         id="stop9184" />
    </linearGradient>
    <radialGradient
       xlink:href="#linearGradient9186"
       id="radialGradient9188"
       cx="370.50192"
       cy="584.36102"
       fx="370.50192"
       fy="584.36102"
       r="48.197727"
       gradientTransform="matrix(2.0352084,0,-8.9246712e-4,2.1004524,-383.02516,-643.06114)"
       gradientUnits="userSpaceOnUse" />
    <radialGradient
       xlink:href="#linearGradient9200"
       id="radialGradient9202"
       cx="161.17349"
       cy="60.531418"
       fx="161.17349"
       fy="60.531418"
       r="33.866665"
       gradientUnits="userSpaceOnUse"
       gradientTransform="matrix(1.2484702,-0.87419891,0.92886097,1.3265509,-96.272086,121.1311)" />
    <radialGradient
       xlink:href="#linearGradient9208"
       id="radialGradient9210"
       cx="367.77151"
       cy="515.42102"
       fx="367.77151"
       fy="515.42102"
       r="127.98937"
       gradientTransform="matrix(-2.294143,0,0,-1.8965103,1211.492,1492.9196)"
       gradientUnits="userSpaceOnUse" />
  </defs>
  <metadata
     id="metadata5">
    <rdf:RDF>
      <cc:Work
         rdf:about="">
        <dc:format>image/svg+xml</dc:format>
        <dc:type
           rdf:resource="http://purl.org/dc/dcmitype/StillImage" />
        <dc:title></dc:title>
      </cc:Work>
    </rdf:RDF>
  </metadata>
  <g
     id="layer1"
     transform="translate(388.33804,-363.05344)">
    <text
       xml:space="preserve"
       style="font-weight:bold;font-size:44.3762px;line-height:1.25;font-family:TeleNeo;-inkscape-font-specification:'TeleNeo Bold';letter-spacing:0px;word-spacing:0px;fill:#a1a0a1;fill-opacity:1;stroke-width:0.264583"
       x="-308.13361"
       y="296.02298"
       id="text1188"><tspan
         id="tspan1186"
         x="-308.13361"
         y="296.02298"
         style="font-style:normal;font-variant:normal;font-weight:bold;font-stretch:normal;font-family:'Comic Sans MS';-inkscape-font-specification:'Comic Sans MS Bold';fill:#a1a0a1;fill-opacity:1;stroke-width:0.264583" /></text>
    <rect
       height="90.631256"
       width="264.58331"
       class="red"
       id="bg"
       x="-388.33804"
       y="363.05344"
       style="fill:#e60012;stroke-width:0.264583" />
    <path
       d="m -348.55505,394.94051 h 8.34035 l 11.53734,18.66695 -0.006,-18.66695 h 8.27599 v 26.76822 h -8.26372 l -11.59865,-18.66695 v 18.66695 h -8.28825 l 0.003,-26.76822 z m 73.13827,2.75253 h 8.05529 v 3.60159 h 4.35869 v 2.64832 h -4.35869 l 0.006,17.76578 h -8.06142 l 0.003,-17.76578 h -4.37708 v -2.64219 l 4.38014,-0.003 -0.006,-3.60465 z m -40.38376,6.21312 8.04917,0.003 v 17.79951 h -8.04917 V 403.9061 Z m -0.0184,-8.97178 h 8.06755 v 5.47135 h -8.06755 z m 144.31482,17.73207 c 0,0 -0.003,2.69123 -0.003,3.77017 0,2.83836 -1.67665,4.00926 -3.28894,4.00926 -1.61535,0 -3.29813,-1.1709 -3.29813,-4.00926 0,-1.07894 0.003,-3.8376 0.003,-3.8376 0,0 0.006,-2.63299 0.006,-3.71194 0,-2.82609 1.68585,-3.9878 3.28894,-3.9878 1.60615,0 3.28894,1.16171 3.28894,3.9878 0,1.07895 -0.003,3.07438 0.006,3.78857 l -0.003,-0.009 v 0 z m -3.23377,-9.9741 c -6.49818,0 -11.76416,4.47517 -11.76416,9.99556 0,5.52039 5.26905,9.99555 11.76416,9.99555 6.49819,0 11.76417,-4.47516 11.76417,-9.99555 0,-5.52039 -5.26598,-9.99556 -11.76417,-9.99556 z m -22.32983,-7.75184 h 7.94494 v 26.76822 h -7.9572 c 0,0 -0.003,-0.86438 -0.003,-1.0299 -3.08051,1.93413 -6.55642,1.93107 -9.26298,0.66821 -0.72645,-0.33717 -5.50506,-2.62992 -5.50506,-8.82465 0,-4.69892 4.43225,-9.83004 10.23463,-9.32122 1.90961,0.16859 3.26749,0.86439 4.55486,1.58777 -0.006,-4.11961 -0.006,-9.84843 -0.006,-9.84843 v 0 z m 0.0582,17.77805 v -3.18166 c 0,-2.75253 -1.90041,-3.45446 -3.151,-3.45446 -1.28125,0 -3.15714,0.70193 -3.15714,3.45446 0,0.91342 0.003,3.17246 0.003,3.17246 0,0 -0.003,2.21919 -0.003,3.16634 0,2.74946 1.87589,3.46978 3.15407,3.46978 1.25366,0 3.15714,-0.72032 3.15714,-3.46978 0,-1.14332 -0.003,-3.15714 -0.003,-3.15714 v 0 z m -91.89717,-9.63386 c 3.01,-0.0858 9.11584,1.88508 9.07293,8.93193 -0.006,1.2506 -0.003,9.68597 -0.003,9.68597 h -7.99705 V 410.012 c 0,-1.55098 -1.48355,-3.27667 -3.67822,-3.27667 -2.1916,0 -3.82228,1.72569 -3.82228,3.27667 0,0.76017 0.009,11.6906 0.009,11.6906 h -7.99092 l -0.003,-17.7995 7.99705,-0.006 c 0,0 -0.009,1.43144 0,1.87283 1.53872,-1.46822 3.75485,-2.60847 6.41542,-2.6851 v 0 z m 65.41708,0 c 3.01,-0.0858 9.11584,1.88508 9.07293,8.93193 -0.006,1.2506 -0.003,9.68597 -0.003,9.68597 h -7.99705 V 410.012 c 0,-1.55098 -1.48355,-3.27667 -3.67822,-3.27667 -2.19161,0 -3.82228,1.72569 -3.82228,3.27667 0,0.76017 0.009,11.6906 0.009,11.6906 h -7.99093 l 0.006,-17.7995 7.98786,-0.006 c 0,0 -0.009,1.43144 0,1.87283 1.53872,-1.46822 3.75791,-2.60847 6.41543,-2.6851 v 0 z m -32.01581,7.02845 c -0.0122,-1.56017 0.0215,-2.60233 0.53334,-3.49124 0.62836,-1.09733 1.78393,-1.61841 2.83223,-1.62454 h -0.003 c 1.04829,0.006 2.20386,0.52721 2.83223,1.62454 0.51188,0.89197 0.53334,1.93413 0.52108,3.49431 l -6.71581,-0.003 v 0 z m 6.68822,5.36714 c 0,0 0.006,0.0797 0.006,1.07894 0,3.25522 -2.14256,3.9786 -3.33185,3.9786 -1.18929,0 -3.36863,-0.72338 -3.36863,-3.9786 0,-0.97473 0.006,-3.67515 0.006,-3.67515 0,0 15.16345,0.006 15.16345,-0.003 0,-5.52039 -5.33035,-10.09364 -11.87757,-10.09364 -6.54723,0 -11.85305,4.47516 -11.85305,9.99555 0,5.52039 5.30582,9.99249 11.85305,9.99249 5.4315,0 10.02007,-3.0989 11.42086,-7.30126 l -8.01851,0.006 v 0 z m -92.44584,21.32139 c -18.09682,-0.006 -30.18896,-12.83084 -30.18896,-28.3805 v 0 c 0,-15.54966 12.11972,-28.52151 30.16137,-28.48166 h 170.49147 c 18.04165,-0.0399 30.16137,12.932 30.16137,28.48166 v 0 c 0,15.54966 -12.09213,28.37437 -30.18896,28.3805 z m 0.0552,-49.86742 c -14.32666,0.0276 -23.12066,9.60321 -23.12066,21.45013 v 0 c 0,11.84386 8.73883,21.49918 23.12066,21.44707 h 170.32594 c 14.38183,0.049 23.12372,-9.60321 23.12372,-21.44707 v 0 c 0,-11.84385 -8.794,-21.41948 -23.12066,-21.44706 l -170.329,-0.003 v 0 z"
       class="white"
       id="logo"
       style="fill:#ffffff;stroke-width:0.264583" />
  </g>
  <style
     type="text/css"
     id="style3">
	.st0{fill:#107C10;}
</style>
  <style
     type="text/css"
     id="style3-8">
	.st0{fill:#107C10;}
</style>
  <style
     type="text/css"
     id="style3-1">
	.st0{fill:#107C10;}
</style>
  <style
     id="style5877"
     type="text/css">
	.red{fill:#E60012;}
	.white{fill:#FFFFFF;}
</style>
</svg>
